<svg xmlns="http://www.w3.org/2000/svg" width="32" height="32" viewBox="0 0 32 32">
  <defs>
    <linearGradient id="boardGradient" x1="0%" y1="0%" x2="100%" y2="100%">
      <stop offset="0%" stop-color="#1A202C"/>
      <stop offset="100%" stop-color="#2D3748"/>
    </linearGradient>
    <linearGradient id="clapperGradient" x1="0%" y1="0%" x2="100%" y2="100%">
      <stop offset="0%" stop-color="#F7FAFC"/>
      <stop offset="100%" stop-color="#E2E8F0"/>
    </linearGradient>
  </defs>
  
  <!-- Main slate board -->
  <rect x="3" y="14" width="26" height="15" rx="1" fill="url(#boardGradient)" stroke="#4A5568" stroke-width="0.5"/>
  
  <!-- Open clapper stick (rotated at angle) -->
  <g transform="rotate(-25 16 8)">
    <rect x="6" y="6" width="20" height="4" rx="0.5" fill="url(#clapperGradient)" stroke="#718096" stroke-width="0.5"/>
    
    <!-- Black and white diagonal stripes -->
    <rect x="7" y="6" width="2" height="4" fill="#1A202C"/>
    <rect x="11" y="6" width="2" height="4" fill="#1A202C"/>
    <rect x="15" y="6" width="2" height="4" fill="#1A202C"/>
    <rect x="19" y="6" width="2" height="4" fill="#1A202C"/>
    <rect x="23" y="6" width="2" height="4" fill="#1A202C"/>
  </g>
  
  <!-- Hinge/pivot point -->
  <circle cx="5" cy="14" r="1.5" fill="#4A5568" stroke="#2D3748" stroke-width="0.5"/>
  
  <!-- Text lines on slate -->
  <rect x="6" y="18" width="18" height="0.8" fill="#A0AEC0" opacity="0.7"/>
  <rect x="6" y="21" width="14" height="0.8" fill="#A0AEC0" opacity="0.7"/>
  <rect x="6" y="24" width="16" height="0.8" fill="#A0AEC0" opacity="0.7"/>
  <rect x="6" y="27" width="12" height="0.8" fill="#A0AEC0" opacity="0.7"/>
  
  <!-- Small decorative elements -->
  <circle cx="26" cy="16" r="0.8" fill="#CBD5E0"/>
  <circle cx="26" cy="19" r="0.8" fill="#CBD5E0"/>
</svg>